<svg width="381" height="512" viewBox="0 0 381 512" fill="none" xmlns="http://www.w3.org/2000/svg">
<path d="M257.837 181.787L285.052 159.049C286.659 157.443 287.865 157.041 286.659 153.828C283.846 146.197 285.454 136.558 287.464 128.927C287.865 127.321 287.062 124.51 285.856 123.305C262.946 107.239 240.035 91.5762 216.723 75.9126C216.321 75.5108 215.517 75.5108 214.713 74.7078C206.273 81.5356 196.224 86.3548 185.372 84.3467C176.931 82.7404 173.716 86.7566 169.697 92.781C148.394 126.116 127.092 159.451 105.387 192.385C101.77 197.606 101.77 202.425 105.387 207.646C127.896 240.981 150.404 274.317 172.51 308.053C174.922 311.668 177.333 313.676 182.559 312.873C205.871 309.66 227.173 327.733 228.781 350.625C230.389 375.927 212.704 396.413 188.186 397.214C164.472 398.019 144.375 378.74 144.777 354.643C145.179 347.011 141.963 343.397 136.336 340.184C130.709 336.971 125.484 332.151 120.259 328.536C103.78 317.692 86.8984 306.848 70.4188 296.004C59.1649 306.447 46.3031 308.856 32.2353 306.045C15.7559 302.431 2.4921 287.57 0.482435 271.505C-1.92917 251.825 7.31535 234.556 24.1966 226.924C27.814 225.318 29.0198 223.711 29.0198 219.695C28.6178 207.646 28.6178 195.598 29.0198 183.549C29.0198 180.737 28.2159 179.131 25.4024 178.328C7.31531 170.295 -2.3311 152.624 0.482435 132.14C2.89404 114.871 17.7656 100.814 35.8525 98.0021C46.3031 96.3955 55.9493 98.8054 64.792 104.428C67.2036 106.035 68.8114 106.035 71.2229 104.83C95.339 87.9614 119.455 71.4945 143.169 54.6265C144.375 53.8232 145.581 51.0117 145.179 49.4051C141.561 24.1026 158.844 0.406579 186.578 0.00495051C213.909 -0.396678 232.399 23.701 227.977 49.8069C227.575 53.0199 228.379 54.6265 230.791 56.2328C253.701 71.8964 276.209 87.56 298.717 103.223C301.933 105.633 303.943 105.231 307.56 103.625C334.49 88.3629 365.84 106.838 369.459 134.952C372.673 160.656 352.176 180.737 332.882 182.344C323.638 183.147 315.197 181.139 307.158 177.123C305.551 176.32 303.139 175.516 301.129 177.524L278.193 195.253C268.849 191.77 256.872 183.209 257.837 181.787ZM148.796 80.3304C148.394 79.9289 148.394 79.5274 147.992 79.1256C146.786 79.5274 145.581 79.9289 144.375 80.3304C124.68 93.584 104.985 107.239 85.2906 120.493C82.4769 122.502 80.8694 124.51 82.4769 128.526C86.0943 138.968 84.4865 149.812 78.8597 159.049C75.2423 164.672 75.2423 168.287 79.6635 173.91C84.0847 179.131 85.2906 179.934 89.31 173.508C108.201 143.788 127.092 114.067 146.385 84.3467C147.188 83.5433 147.992 81.937 148.796 80.3304ZM85.2906 221.302C81.6731 226.523 79.6635 230.539 76.8501 234.154C74.8404 236.564 74.8404 238.572 76.8501 241.383C83.6828 251.022 86.0944 261.866 83.6828 273.513C82.8791 277.128 83.6828 279.136 86.8984 280.743C105.789 292.39 124.278 304.037 143.169 315.684C144.375 316.487 145.983 317.291 147.59 318.094C147.992 317.692 148.394 317.291 148.796 316.889C127.494 285.161 106.593 253.833 85.2906 221.302ZM52.3321 225.72C54.3415 224.515 55.5474 224.515 55.9493 224.113C60.7727 217.687 65.5958 211.261 70.017 204.434C70.821 203.228 70.017 200.015 69.2132 198.409C66.3995 193.188 62.7824 188.368 59.1649 183.147C58.3608 181.942 55.9493 181.541 54.3418 180.336C53.5377 181.942 52.3321 183.549 52.3321 184.754C51.9299 194.393 52.3321 203.63 52.3321 213.269C52.3321 217.286 52.3321 220.9 52.3321 225.72Z" fill="#FAC54D"/>
<path d="M122.454 330.212L95.2395 352.951C93.6317 354.558 92.4257 354.959 93.6317 358.172C96.4451 365.801 94.8376 375.441 92.828 383.073C92.4257 384.68 93.2298 387.489 94.4354 388.695C117.346 404.761 140.256 420.423 163.568 436.085C163.97 436.49 164.774 436.49 165.578 437.291C174.019 430.464 184.067 425.644 194.919 427.651C203.36 429.258 206.575 425.243 210.595 419.217C231.897 385.882 253.2 352.547 274.904 319.614C278.522 314.393 278.522 309.574 274.904 304.353C252.396 271.017 229.887 237.682 207.781 203.946C205.369 200.331 202.958 198.323 197.733 199.126C174.42 202.339 153.118 184.266 151.51 161.373C149.903 136.071 167.588 115.588 192.106 114.784C215.82 113.981 235.916 133.259 235.514 157.357C235.113 164.988 238.328 168.603 243.955 171.816C249.582 175.028 254.807 179.848 260.032 183.463C276.512 194.306 293.393 205.15 309.872 215.994C321.127 205.552 333.988 203.142 348.057 205.954C364.536 209.569 377.8 224.429 379.81 240.494C382.22 260.173 372.977 277.444 356.095 285.074C352.477 286.681 351.272 288.288 351.272 292.304C351.672 304.353 351.672 316.401 351.272 328.45C351.272 331.262 352.076 332.868 354.89 333.671C372.977 341.704 382.623 359.374 379.81 379.86C377.396 397.129 362.527 411.184 344.439 413.997C333.988 415.603 324.342 413.195 315.499 407.57C313.088 405.963 311.48 405.963 309.069 407.169C284.953 424.037 260.836 440.505 237.122 457.373C235.916 458.174 234.711 460.987 235.113 462.593C238.73 487.895 221.447 511.591 193.713 511.995C166.382 512.396 147.893 488.3 152.314 462.193C152.716 458.979 151.912 457.373 149.501 455.766C126.59 440.104 104.082 424.438 81.5736 408.776C78.358 406.364 76.3487 406.768 72.7312 408.375C45.8014 423.637 14.4507 405.162 10.8333 377.047C7.61778 351.344 28.1164 331.262 47.4092 329.655C56.6538 328.852 65.0944 330.86 73.1331 334.876C74.7409 335.679 77.1524 336.483 79.1621 334.475L102.098 316.746L112.276 323.479L122.454 330.212ZM231.495 431.67C231.897 432.071 231.897 432.471 232.299 432.872C233.505 432.471 234.711 432.071 235.916 431.67C255.611 418.416 275.306 404.761 295.001 391.507C297.814 389.496 299.422 387.489 297.814 383.474C294.197 373.032 295.805 362.187 301.432 352.951C305.049 347.326 305.049 343.712 300.628 338.089C296.206 332.868 295.001 332.065 290.982 338.491C272.09 368.212 253.2 397.93 233.907 427.651C233.103 428.456 232.299 430.063 231.495 431.67ZM295.001 290.697C298.618 285.476 300.628 281.46 303.441 277.845C305.451 275.435 305.451 273.427 303.441 270.616C296.608 260.977 294.197 250.133 296.608 238.486C297.412 234.871 296.608 232.863 293.393 231.256C274.502 219.609 256.013 207.962 237.122 196.315C235.916 195.512 234.309 194.708 232.701 193.905C232.299 194.306 231.897 194.708 231.495 195.11C252.798 226.838 273.698 258.165 295.001 290.697ZM327.959 286.279C325.95 287.484 324.744 287.484 324.342 287.886C319.519 294.312 314.695 300.738 310.274 307.566C309.47 308.77 310.274 311.983 311.078 313.59C313.892 318.811 317.509 323.631 321.127 328.852C321.93 330.057 324.342 330.458 325.95 331.663C326.753 330.057 327.959 328.45 327.959 327.245C328.361 317.606 327.959 308.369 327.959 298.73C327.959 294.714 327.959 291.099 327.959 286.279Z" fill="#1C1C1C"/>
</svg>
