<svg width="389" height="150" viewBox="0 0 389 150" fill="none" xmlns="http://www.w3.org/2000/svg">
<path d="M143.802 90.715C140.098 90.715 136.945 89.8717 134.342 88.185C131.775 86.4983 129.978 84.1883 128.952 81.255L134.397 78.065C135.937 82.3917 139.127 84.555 143.967 84.555C146.35 84.555 148.128 84.0967 149.302 83.18C150.512 82.2267 151.117 80.9983 151.117 79.495C151.117 77.9183 150.475 76.7267 149.192 75.92C147.908 75.0767 145.635 74.16 142.372 73.17C140.538 72.62 139.053 72.1067 137.917 71.63C136.78 71.1533 135.57 70.4933 134.287 69.65C133.04 68.77 132.105 67.6883 131.482 66.405C130.858 65.1217 130.547 63.6183 130.547 61.895C130.547 58.485 131.757 55.79 134.177 53.81C136.597 51.7933 139.512 50.785 142.922 50.785C146.002 50.785 148.697 51.5367 151.007 53.04C153.317 54.5433 155.095 56.615 156.342 59.255L151.007 62.335C149.393 58.7417 146.698 56.945 142.922 56.945C141.088 56.945 139.622 57.385 138.522 58.265C137.422 59.1083 136.872 60.2633 136.872 61.73C136.872 63.16 137.422 64.2967 138.522 65.14C139.658 65.9467 141.693 66.8083 144.627 67.725C146.093 68.2017 147.157 68.5683 147.817 68.825C148.513 69.045 149.467 69.4117 150.677 69.925C151.923 70.4383 152.858 70.9517 153.482 71.465C154.105 71.9783 154.765 72.62 155.462 73.39C156.195 74.16 156.708 75.04 157.002 76.03C157.295 77.02 157.442 78.1383 157.442 79.385C157.442 82.8683 156.177 85.6367 153.647 87.69C151.153 89.7067 147.872 90.715 143.802 90.715ZM175.138 90.715C171.105 90.715 167.676 89.3217 164.853 86.535C162.03 83.7483 160.618 80.32 160.618 76.25C160.618 72.18 162.03 68.7517 164.853 65.965C167.676 63.1783 171.105 61.785 175.138 61.785C179.208 61.785 182.636 63.1783 185.423 65.965C188.246 68.7517 189.658 72.18 189.658 76.25C189.658 80.32 188.246 83.7483 185.423 86.535C182.636 89.3217 179.208 90.715 175.138 90.715ZM169.033 82.465C170.683 84.115 172.718 84.94 175.138 84.94C177.558 84.94 179.593 84.115 181.243 82.465C182.893 80.815 183.718 78.7433 183.718 76.25C183.718 73.7567 182.893 71.685 181.243 70.035C179.593 68.385 177.558 67.56 175.138 67.56C172.718 67.56 170.683 68.385 169.033 70.035C167.383 71.685 166.558 73.7567 166.558 76.25C166.558 78.7433 167.383 80.815 169.033 82.465ZM215.819 62.5H221.649V88.735C221.649 92.915 220.274 96.1233 217.524 98.36C214.774 100.597 211.437 101.715 207.514 101.715C201.171 101.715 196.826 99.4967 194.479 95.06L199.594 92.09C201.024 94.9133 203.701 96.325 207.624 96.325C210.191 96.325 212.189 95.6467 213.619 94.29C215.086 92.97 215.819 91.1183 215.819 88.735V85.38C213.582 88.57 210.392 90.165 206.249 90.165C202.362 90.165 199.081 88.79 196.404 86.04C193.727 83.2533 192.389 79.8983 192.389 75.975C192.389 72.0517 193.727 68.715 196.404 65.965C199.081 63.1783 202.362 61.785 206.249 61.785C210.392 61.785 213.582 63.38 215.819 66.57V62.5ZM200.804 82.135C202.491 83.785 204.581 84.61 207.074 84.61C209.567 84.61 211.639 83.785 213.289 82.135C214.976 80.485 215.819 78.4317 215.819 75.975C215.819 73.5183 214.976 71.465 213.289 69.815C211.639 68.165 209.567 67.34 207.074 67.34C204.581 67.34 202.491 68.165 200.804 69.815C199.154 71.465 198.329 73.5183 198.329 75.975C198.329 78.4317 199.154 80.485 200.804 82.135ZM240.453 90.715C236.419 90.715 232.991 89.3217 230.168 86.535C227.344 83.7483 225.933 80.32 225.933 76.25C225.933 72.18 227.344 68.7517 230.168 65.965C232.991 63.1783 236.419 61.785 240.453 61.785C244.523 61.785 247.951 63.1783 250.738 65.965C253.561 68.7517 254.973 72.18 254.973 76.25C254.973 80.32 253.561 83.7483 250.738 86.535C247.951 89.3217 244.523 90.715 240.453 90.715ZM234.348 82.465C235.998 84.115 238.033 84.94 240.453 84.94C242.873 84.94 244.908 84.115 246.558 82.465C248.208 80.815 249.033 78.7433 249.033 76.25C249.033 73.7567 248.208 71.685 246.558 70.035C244.908 68.385 242.873 67.56 240.453 67.56C238.033 67.56 235.998 68.385 234.348 70.035C232.698 71.685 231.873 73.7567 231.873 76.25C231.873 78.7433 232.698 80.815 234.348 82.465Z" fill="#1C1C1C"/>
<path d="M280.406 51.5V57.55H269.571V90H263.246V57.55H252.356V51.5H280.406ZM287.04 67.12C288.543 63.71 291.366 62.005 295.51 62.005V68.44C293.236 68.2933 291.256 68.8433 289.57 70.09C287.883 71.3 287.04 73.3167 287.04 76.14V90H281.1V62.5H287.04V67.12ZM320.39 62.5H326.33V90H320.39V86.04C318.153 89.1567 314.945 90.715 310.765 90.715C306.988 90.715 303.761 89.3217 301.085 86.535C298.408 83.7117 297.07 80.2833 297.07 76.25C297.07 72.18 298.408 68.7517 301.085 65.965C303.761 63.1783 306.988 61.785 310.765 61.785C314.945 61.785 318.153 63.325 320.39 66.405V62.5ZM305.485 82.575C307.135 84.225 309.206 85.05 311.7 85.05C314.193 85.05 316.265 84.225 317.915 82.575C319.565 80.8883 320.39 78.78 320.39 76.25C320.39 73.72 319.565 71.63 317.915 69.98C316.265 68.2933 314.193 67.45 311.7 67.45C309.206 67.45 307.135 68.2933 305.485 69.98C303.835 71.63 303.01 73.72 303.01 76.25C303.01 78.78 303.835 80.8883 305.485 82.575ZM346.233 90.715C342.09 90.715 338.625 89.3217 335.838 86.535C333.088 83.7483 331.713 80.32 331.713 76.25C331.713 72.1433 333.088 68.715 335.838 65.965C338.625 63.1783 342.09 61.785 346.233 61.785C348.91 61.785 351.348 62.4267 353.548 63.71C355.748 64.9933 357.398 66.7167 358.498 68.88L353.383 71.85C352.76 70.53 351.806 69.5033 350.523 68.77C349.276 68 347.828 67.615 346.178 67.615C343.758 67.615 341.723 68.44 340.073 70.09C338.46 71.74 337.653 73.7933 337.653 76.25C337.653 78.7067 338.46 80.76 340.073 82.41C341.723 84.06 343.758 84.885 346.178 84.885C347.791 84.885 349.24 84.5 350.523 83.73C351.843 82.96 352.833 81.9333 353.493 80.65L358.608 83.565C357.435 85.765 355.748 87.5067 353.548 88.79C351.348 90.0733 348.91 90.715 346.233 90.715ZM387.212 90H380.117L368.842 77.295V90H362.902V51.5H368.842V74.655L379.512 62.5H386.772L374.672 75.975L387.212 90Z" fill="#1C1C1C"/>
<path d="M75.3238 53.0865L83.2742 46.449C83.7438 45.9801 84.0961 45.8628 83.7439 44.9249C82.9219 42.6973 83.3916 39.8836 83.9787 37.656C84.0961 37.187 83.8613 36.3664 83.509 36.0146C76.8161 31.325 70.1231 26.7527 63.3128 22.1803C63.1954 22.063 62.9605 22.063 62.7257 21.8286C60.2599 23.8217 57.3244 25.2285 54.154 24.6423C51.6882 24.1734 50.7489 25.3458 49.5747 27.1044C43.3514 36.8353 37.1282 46.5663 30.7875 56.18C29.7307 57.7041 29.7307 59.111 30.7875 60.6351C37.363 70.366 43.9385 80.097 50.3966 89.9452C51.1011 91.0003 51.8056 91.5865 53.3321 91.352C60.1425 90.4141 66.3657 95.6899 66.8354 102.373C67.3051 109.759 62.1386 115.738 54.976 115.972C48.0482 116.207 42.1772 110.579 42.2946 103.545C42.4121 101.317 41.4727 100.262 39.8288 99.3244C38.1849 98.3865 36.6585 96.9796 35.132 95.9244C30.3178 92.7589 25.3862 89.5934 20.572 86.4279C17.2842 89.4762 13.5268 90.1796 9.41707 89.359C4.60285 88.3038 0.727994 83.9659 0.140895 79.2763C-0.563624 73.5315 2.13704 68.4902 7.06868 66.2626C8.12545 65.7937 8.47771 65.3247 8.47771 64.1523C8.36029 60.6351 8.36029 57.1179 8.47771 53.6007C8.47771 52.78 8.24287 52.311 7.42093 52.0766C2.13704 49.7318 -0.681044 44.5732 0.140895 38.5939C0.845414 33.5526 5.18995 29.4492 10.4738 28.6285C13.5268 28.1595 16.3448 28.863 18.9281 30.5043C19.6326 30.9733 20.1023 30.9733 20.8068 30.6216C27.852 25.6975 34.8972 20.8906 41.825 15.9666C42.1772 15.7321 42.5295 14.9114 42.4121 14.4424C41.3553 7.05628 46.4043 0.139106 54.5063 0.0218656C62.4909 -0.0953747 67.8922 6.93906 66.6005 14.5597C66.4831 15.4976 66.718 15.9666 67.4225 16.4355C74.1154 21.0079 80.6909 25.5803 87.2664 30.1526C88.2058 30.8561 88.7929 30.7388 89.8497 30.2699C97.7168 25.8147 106.876 31.2078 107.932 39.4146C108.872 46.918 102.883 52.78 97.2471 53.249C94.5465 53.4834 92.0807 52.8972 89.7323 51.7248C89.2626 51.4904 88.5581 51.2559 87.971 51.8421L81.2705 57.0173C78.5407 56.0007 75.0419 53.5016 75.3238 53.0865ZM43.4688 23.4699C43.3514 23.3527 43.3514 23.2355 43.234 23.1182C42.8817 23.2355 42.5295 23.3527 42.1772 23.4699C36.4236 27.3388 30.6701 31.325 24.9165 35.194C24.0946 35.7802 23.6249 36.3664 24.0946 37.5388C25.1513 40.587 24.6816 43.7525 23.0378 46.449C21.981 48.0904 21.981 49.1455 23.2726 50.7869C24.5642 52.311 24.9165 52.5455 26.0907 50.6697C31.6094 41.9939 37.1282 33.3181 42.7643 24.6423C42.9992 24.4078 43.234 23.9389 43.4688 23.4699ZM24.9165 64.6213C23.8597 66.1454 23.2726 67.3178 22.4507 68.373C21.8636 69.0764 21.8636 69.6626 22.4507 70.4833C24.4468 73.297 25.1513 76.4625 24.4468 79.8625C24.212 80.9177 24.4468 81.5039 25.3862 81.9728C30.9049 85.3728 36.3062 88.7728 41.825 92.1727C42.1772 92.4072 42.6469 92.6417 43.1166 92.8762C43.234 92.7589 43.3514 92.6417 43.4688 92.5244C37.2456 83.2625 31.1397 74.1177 24.9165 64.6213ZM15.2881 65.9109C15.8752 65.5592 16.2274 65.5592 16.3448 65.4419C17.7539 63.5661 19.1629 61.6903 20.4545 59.6972C20.6894 59.3454 20.4545 58.4075 20.2197 57.9386C19.3978 56.4144 18.341 55.0076 17.2842 53.4834C17.0494 53.1317 16.3448 53.0145 15.8752 52.6628C15.6403 53.1317 15.2881 53.6007 15.2881 53.9524C15.1706 56.7662 15.2881 59.4627 15.2881 62.2765C15.2881 63.4489 15.2881 64.504 15.2881 65.9109Z" fill="#FAC54D"/>
<path d="M35.7733 96.4135L27.823 103.051C27.3533 103.52 27.0011 103.637 27.3533 104.575C28.1753 106.803 27.7056 109.616 27.1185 111.844C27.0011 112.313 27.2359 113.134 27.5882 113.485C34.2811 118.175 40.974 122.747 47.7844 127.32C47.9018 127.437 48.1366 127.437 48.3715 127.671C50.8373 125.678 53.7728 124.271 56.9431 124.858C59.4089 125.327 60.3483 124.154 61.5225 122.396C67.7458 112.665 73.969 102.934 80.3097 93.32C81.3665 91.7959 81.3665 90.389 80.3097 88.8649C73.7342 79.134 67.1587 69.403 60.7006 59.5548C59.996 58.4997 59.2915 57.9135 57.7651 58.148C50.9547 59.0859 44.7315 53.8101 44.2618 47.1274C43.7921 39.7412 48.9586 33.762 56.1212 33.5275C63.049 33.293 68.92 38.9205 68.8025 45.955C68.6851 48.1825 69.6245 49.2377 71.2684 50.1756C72.9122 51.1135 74.4387 52.5204 75.9652 53.5756C80.7794 56.7411 85.711 59.9066 90.5252 63.072C93.813 60.0238 97.5704 59.3204 101.68 60.141C106.494 61.1962 110.369 65.5341 110.956 70.2237C111.661 75.9685 108.96 81.0098 104.028 83.2374C102.972 83.7063 102.619 84.1753 102.619 85.3477C102.737 88.8649 102.737 92.3821 102.619 95.8993C102.619 96.72 102.854 97.189 103.676 97.4234C108.96 99.7682 111.778 104.927 110.956 110.906C110.252 115.947 105.907 120.051 100.623 120.871C97.5704 121.34 94.7523 120.637 92.1691 118.996C91.4646 118.527 90.9949 118.527 90.2904 118.878C83.2452 123.803 76.2 128.609 69.2722 133.533C68.92 133.768 68.5677 134.589 68.6851 135.058C69.7419 142.444 64.6928 149.361 56.5909 149.478C48.6063 149.595 43.205 142.561 44.4966 134.94C44.614 134.002 44.3792 133.533 43.6747 133.064C36.9818 128.492 30.4062 123.92 23.8307 119.347C22.8914 118.644 22.3043 118.761 21.2475 119.23C13.3804 123.685 4.2216 118.292 3.16482 110.085C2.22546 102.582 8.21388 96.72 13.85 96.251C16.5507 96.0166 19.0165 96.6028 21.3649 97.7752C21.8346 98.0096 22.5391 98.2441 23.1262 97.6579L29.8267 92.4827L32.8 94.4481L35.7733 96.4135ZM67.6283 126.03C67.7458 126.147 67.7458 126.265 67.8632 126.382C68.2154 126.265 68.5677 126.147 68.92 126.03C74.6735 122.161 80.4271 118.175 86.1807 114.306C87.0026 113.72 87.4723 113.134 87.0026 111.961C85.9458 108.913 86.4155 105.748 88.0594 103.051C89.1162 101.41 89.1162 100.354 87.8246 98.7131C86.5329 97.189 86.1807 96.9545 85.0065 98.8303C79.4877 107.506 73.969 116.182 68.3329 124.858C68.098 125.092 67.8632 125.561 67.6283 126.03ZM86.1807 84.8787C87.2375 83.3546 87.8246 82.1822 88.6465 81.127C89.2336 80.4236 89.2336 79.8374 88.6465 79.0167C86.6504 76.203 85.9458 73.0375 86.6504 69.6375C86.8852 68.5823 86.6504 67.9961 85.711 67.5272C80.1923 64.1272 74.7909 60.7272 69.2722 57.3273C68.92 57.0928 68.4503 56.8583 67.9806 56.6238C67.8632 56.7411 67.7458 56.8583 67.6283 56.9756C73.8516 66.2375 79.9574 75.3823 86.1807 84.8787ZM95.8091 83.5891C95.222 83.9408 94.8697 83.9408 94.7523 84.0581C93.3433 85.9339 91.9343 87.8097 90.6426 89.8028C90.4078 90.1545 90.6426 91.0925 90.8775 91.5614C91.6994 93.0856 92.7562 94.4924 93.813 96.0166C94.0478 96.3683 94.7523 96.4855 95.222 96.8372C95.4568 96.3683 95.8091 95.8993 95.8091 95.5476C95.9265 92.7338 95.8091 90.0373 95.8091 87.2235C95.8091 86.0511 95.8091 84.996 95.8091 83.5891Z" fill="#1C1C1C"/>
</svg>
